<svg version="1.0" xmlns="http://www.w3.org/2000/svg" width="500.000000pt" height="500.000000pt"
    viewBox="0 0 500.000000 500.000000" preserveAspectRatio="xMidYMid meet">
    <metadata>
        Created by potrace 1.16, written by Peter Selinger 2001-2019
    </metadata>
    <g transform="translate(0.000000,500.000000) scale(0.100000,-0.100000)" fill="#000000" stroke="none">
        <path d="M0 2500 l0 -2500 2500 0 2500 0 0 2500 0 2500 -2500 0 -2500 0 0
-2500z m2570 288 c0 -654 2 -678 61 -788 36 -67 110 -148 173 -187 147 -94
350 -98 503 -12 70 40 153 125 192 198 58 110 61 140 61 729 l0 532 -430 0
-430 0 0 -120 0 -120 -60 0 -60 0 0 180 0 180 550 0 551 0 -3 -637 -3 -638
-29 -75 c-99 -260 -318 -413 -586 -412 -114 1 -198 23 -296 77 -80 45 -188
149 -224 218 -14 26 -27 47 -30 47 -3 0 -16 -21 -30 -47 -43 -81 -154 -183
-251 -230 -104 -51 -170 -66 -279 -66 -239 2 -448 135 -551 353 -32 66 -59
170 -59 228 l0 32 58 0 58 0 13 -75 c31 -189 172 -348 355 -400 84 -25 231
-17 306 15 165 71 279 209 309 374 7 38 11 254 11 588 l0 528 -430 0 -430 0 0
-120 0 -120 -60 0 -60 0 0 180 0 180 550 0 550 0 0 -592z m-242 -140 c-3 -488
-4 -494 -26 -550 -32 -80 -108 -160 -188 -199 -226 -112 -494 35 -527 289 l-5
42 58 0 59 0 7 -37 c9 -53 36 -103 76 -142 45 -45 81 -62 144 -68 82 -9 139
12 200 71 84 82 85 89 82 561 l-3 400 -257 3 -258 2 0 60 0 60 321 0 320 0 -3
-492z m1110 0 c-3 -489 -3 -494 -26 -551 -33 -81 -114 -166 -194 -203 -55 -25
-75 -29 -153 -29 -78 0 -98 4 -153 29 -114 53 -199 169 -215 294 l-5 42 58 0
59 0 7 -37 c14 -77 59 -140 133 -186 52 -32 180 -32 232 0 50 31 87 70 113
118 20 39 21 52 24 468 l3 427 -261 0 -260 0 0 60 0 60 321 0 320 0 -3 -492z" />
    </g>
</svg>