<svg width="190" height="190" viewBox="0 0 190 190" fill="none" xmlns="http://www.w3.org/2000/svg">
    <rect width="190" height="190" fill="#09E989" />
    <path
        d="M86.3562 23.4201L31.5705 77.1071C29.1705 79.4561 27.2666 82.2455 25.9676 85.3158C24.6686 88.3861 24 91.6772 24 95.0009C24 98.3245 24.6686 101.616 25.9676 104.686C27.2666 107.756 29.1705 110.546 31.5705 112.895L86.3697 166.583C88.7673 168.934 91.6144 170.8 94.7483 172.072C97.8821 173.345 101.241 174 104.634 174C108.026 174 111.385 173.345 114.519 172.072C117.653 170.8 120.5 168.934 122.898 166.583L141.168 148.689L122.898 130.795L104.634 148.689L49.8282 95.0012L104.627 41.3129L141.161 77.1071L104.627 112.895L122.891 130.795L159.426 95.0012C161.827 92.652 163.732 89.8622 165.031 86.7912C166.331 83.7202 167 80.4283 167 77.1038C167 73.7793 166.331 70.4874 165.031 67.4164C163.732 64.3454 161.827 61.5555 159.426 59.2064L122.818 23.4194C120.428 21.0678 117.587 19.2019 114.459 17.9287C111.331 16.6554 107.978 16 104.59 16C101.203 16 97.8493 16.6554 94.7214 17.9287C91.5934 19.2019 88.7529 21.0678 86.3629 23.4194L86.3562 23.4201Z"
        fill="black" />
</svg>