<svg width="40" height="40" viewBox="0 0 40 40" fill="none" xmlns="http://www.w3.org/2000/svg">
   <g clip-path="url(#clip0_4_2)">
      <rect width="40" height="40" rx="10" fill="black" />
      <path
         d="M30.686 19.778L30.4184 18.8145L30.4657 20.7534L30.686 19.778ZM33.724 21.7L32.924 22.3L32.931 22.3094L32.9383 22.3186L33.724 21.7ZM32.949 29.419L33.5843 30.1913L33.5843 30.1913L32.949 29.419ZM16.736 31H15.736V32H16.736V31ZM16.736 9.145V8.145H15.736V9.145H16.736ZM32.453 10.633L31.8346 11.4189L31.8408 11.4237L32.453 10.633ZM33.352 18.042L32.5657 17.4242L32.5637 17.4267L33.352 18.042ZM22.812 17.825H21.812V18.825H22.812V17.825ZM22.812 13.981V12.981H21.812V13.981H22.812ZM28.02 22.661L27.3532 23.4062L27.3627 23.4147L27.3724 23.4229L28.02 22.661ZM22.812 22.134V21.134H21.812V22.134H22.812ZM22.812 26.102H21.812V27.102H22.812V26.102ZM30.4657 20.7534C31.5303 20.9938 32.3314 21.5099 32.924 22.3L34.524 21.1C33.6286 19.9061 32.4044 19.1408 30.9063 18.8026L30.4657 20.7534ZM32.9383 22.3186C33.5612 23.1098 33.871 24.0069 33.871 25.048H35.871C35.871 23.5678 35.4161 22.2328 34.5097 21.0814L32.9383 22.3186ZM33.871 25.048C33.871 26.6499 33.3343 27.8072 32.3137 28.6467L33.5843 30.1913C35.1263 28.9228 35.871 27.1661 35.871 25.048H33.871ZM32.3137 28.6467C31.2706 29.5048 29.7284 30 27.555 30V32C30.0109 32 32.0647 31.4412 33.5843 30.1913L32.3137 28.6467ZM27.555 30H16.736V32H27.555V30ZM17.736 31V9.145H15.736V31H17.736ZM16.736 10.145H27.214V8.145H16.736V10.145ZM27.214 10.145C29.3081 10.145 30.8078 10.6109 31.8346 11.4189L33.0714 9.84713C31.5768 8.67108 29.584 8.145 27.214 8.145V10.145ZM31.8408 11.4237C32.8484 12.2038 33.375 13.2906 33.375 14.818H35.375C35.375 12.7494 34.6203 11.0462 33.0652 9.84228L31.8408 11.4237ZM33.375 14.818C33.375 15.9129 33.0877 16.7598 32.5657 17.4242L34.1383 18.6598C34.9803 17.5882 35.375 16.2858 35.375 14.818H33.375ZM32.5637 17.4267C32.0446 18.0918 31.345 18.5571 30.4184 18.8145L30.9536 20.7415C32.259 20.3789 33.3368 19.6868 34.1403 18.6573L32.5637 17.4267ZM22.812 18.825H25.881V16.825H22.812V18.825ZM25.881 18.825C26.7579 18.825 27.6015 18.6482 28.2376 18.1239C28.9107 17.569 29.175 16.7749 29.175 15.934H27.175C27.175 16.3538 27.057 16.5051 26.9654 16.5806C26.8369 16.6866 26.5334 16.825 25.881 16.825V18.825ZM29.175 15.934C29.175 15.083 28.9175 14.2763 28.2497 13.7078C27.6128 13.1655 26.764 12.981 25.881 12.981V14.981C26.5273 14.981 26.8256 15.122 26.9533 15.2307C27.0501 15.3132 27.175 15.483 27.175 15.934H29.175ZM25.881 12.981H22.812V14.981H25.881V12.981ZM21.812 13.981V17.825H23.812V13.981H21.812ZM26.346 27.102C27.2259 27.102 28.0721 26.9214 28.7087 26.388C29.3792 25.8263 29.64 25.0258 29.64 24.18H27.64C27.64 24.6155 27.5185 24.7761 27.4243 24.855C27.2962 24.9623 26.9954 25.102 26.346 25.102V27.102ZM29.64 24.18C29.64 23.2956 29.353 22.4816 28.6676 21.8991L27.3724 23.4229C27.5136 23.543 27.64 23.7417 27.64 24.18H29.64ZM28.6868 21.9158C28.0474 21.3437 27.2041 21.134 26.315 21.134V23.134C26.9139 23.134 27.2073 23.2757 27.3532 23.4062L28.6868 21.9158ZM26.315 21.134H22.812V23.134H26.315V21.134ZM21.812 22.134V26.102H23.812V22.134H21.812ZM22.812 27.102H26.346V25.102H22.812V27.102Z"
         fill="white" />
      <g filter="url(#filter0_d_4_2)">
         <path
            d="M20.305 8.325V24.67C20.305 27.4467 19.5467 29.57 18.03 31.04C16.5367 32.51 14.4717 33.245 11.835 33.245C9.035 33.245 6.795 32.4633 5.115 30.9C3.45833 29.3367 2.63 27.085 2.63 24.145H9.42C9.44333 26.0817 10.155 27.05 11.555 27.05C12.815 27.05 13.445 26.2567 13.445 24.67V8.325H20.305Z"
            fill="white" />
      </g>
   </g>
   <defs>
      <filter id="filter0_d_4_2" x="2.63" y="-6.675" width="32.675" height="39.92" filterUnits="userSpaceOnUse"
         color-interpolation-filters="sRGB">
         <feFlood flood-opacity="0" result="BackgroundImageFix" />
         <feColorMatrix in="SourceAlpha" type="matrix" values="0 0 0 0 0 0 0 0 0 0 0 0 0 0 0 0 0 0 127 0"
            result="hardAlpha" />
         <feOffset dx="10" dy="-10" />
         <feGaussianBlur stdDeviation="2.5" />
         <feComposite in2="hardAlpha" operator="out" />
         <feColorMatrix type="matrix" values="0 0 0 0 0 0 0 0 0 0 0 0 0 0 0 0 0 0 0.25 0" />
         <feBlend mode="normal" in2="BackgroundImageFix" result="effect1_dropShadow_4_2" />
         <feBlend mode="normal" in="SourceGraphic" in2="effect1_dropShadow_4_2" result="shape" />
      </filter>
      <clipPath id="clip0_4_2">
         <rect width="40" height="40" rx="10" fill="white" />
      </clipPath>
   </defs>
</svg>