<svg width="542" height="198" viewBox="0 0 542 198" fill="none" xmlns="http://www.w3.org/2000/svg">
<path d="M46.3213 14V94.3342L64.3161 65.0925L94.5218 14H46.3213Z" fill="white" stroke="white"/>
<path d="M129.048 97.8689C129.048 120.302 110.576 138.5 87.7738 138.5C64.9716 138.5 46.5 120.302 46.5 97.8689C46.5 75.4362 64.9716 57.2378 87.7738 57.2378C110.576 57.2378 129.048 75.4362 129.048 97.8689Z" fill="white" stroke="white"/>
<path d="M160.895 131.065C155.284 131.065 150.455 129.929 146.406 127.656C142.382 125.36 139.28 122.116 137.102 117.926C134.924 113.712 133.835 108.729 133.835 102.976C133.835 97.3651 134.924 92.4408 137.102 88.2031C139.28 83.9654 142.346 80.6629 146.3 78.2955C150.277 75.928 154.941 74.7443 160.291 74.7443C163.89 74.7443 167.24 75.3243 170.341 76.4844C173.466 77.6207 176.188 79.3371 178.509 81.6335C180.852 83.9299 182.675 86.8182 183.977 90.2983C185.279 93.7547 185.93 97.803 185.93 102.443V106.598H139.872V97.223H171.69C171.69 95.045 171.217 93.1155 170.27 91.4347C169.323 89.7538 168.009 88.4399 166.328 87.4929C164.671 86.5223 162.741 86.0369 160.54 86.0369C158.243 86.0369 156.207 86.5696 154.432 87.6349C152.68 88.6766 151.307 90.0852 150.312 91.8608C149.318 93.6127 148.809 95.5658 148.786 97.7202V106.634C148.786 109.332 149.283 111.664 150.277 113.629C151.295 115.594 152.727 117.109 154.574 118.175C156.42 119.24 158.61 119.773 161.143 119.773C162.824 119.773 164.363 119.536 165.76 119.062C167.157 118.589 168.352 117.879 169.347 116.932C170.341 115.985 171.098 114.825 171.619 113.452L185.611 114.375C184.901 117.737 183.445 120.672 181.243 123.182C179.065 125.668 176.248 127.609 172.791 129.006C169.358 130.379 165.393 131.065 160.895 131.065ZM225.135 75.4545V86.8182H191.47V75.4545H225.135ZM199.176 130V71.5128C199.176 67.5592 199.946 64.2803 201.484 61.6761C203.047 59.072 205.178 57.1188 207.876 55.8168C210.575 54.5147 213.641 53.8636 217.074 53.8636C219.394 53.8636 221.513 54.0412 223.43 54.3963C225.372 54.7514 226.816 55.071 227.763 55.3551L225.064 66.7188C224.472 66.5294 223.738 66.3518 222.862 66.1861C222.01 66.0204 221.134 65.9375 220.234 65.9375C218.009 65.9375 216.458 66.4583 215.582 67.5C214.706 68.518 214.268 69.9503 214.268 71.7969V130H199.176ZM263.709 75.4545V86.8182H230.044V75.4545H263.709ZM237.75 130V71.5128C237.75 67.5592 238.52 64.2803 240.059 61.6761C241.621 59.072 243.752 57.1188 246.451 55.8168C249.15 54.5147 252.215 53.8636 255.648 53.8636C257.968 53.8636 260.087 54.0412 262.005 54.3963C263.946 54.7514 265.39 55.071 266.337 55.3551L263.638 66.7188C263.046 66.5294 262.312 66.3518 261.436 66.1861C260.584 66.0204 259.708 65.9375 258.809 65.9375C256.583 65.9375 255.033 66.4583 254.157 67.5C253.281 68.518 252.843 69.9503 252.843 71.7969V130H237.75ZM295.856 131.065C290.245 131.065 285.415 129.929 281.367 127.656C277.343 125.36 274.241 122.116 272.063 117.926C269.885 113.712 268.796 108.729 268.796 102.976C268.796 97.3651 269.885 92.4408 272.063 88.2031C274.241 83.9654 277.307 80.6629 281.261 78.2955C285.238 75.928 289.902 74.7443 295.252 74.7443C298.851 74.7443 302.201 75.3243 305.302 76.4844C308.427 77.6207 311.149 79.3371 313.469 81.6335C315.813 83.9299 317.636 86.8182 318.938 90.2983C320.24 93.7547 320.891 97.803 320.891 102.443V106.598H274.833V97.223H306.651C306.651 95.045 306.178 93.1155 305.231 91.4347C304.284 89.7538 302.97 88.4399 301.289 87.4929C299.632 86.5223 297.702 86.0369 295.501 86.0369C293.204 86.0369 291.168 86.5696 289.393 87.6349C287.641 88.6766 286.268 90.0852 285.273 91.8608C284.279 93.6127 283.77 95.5658 283.746 97.7202V106.634C283.746 109.332 284.244 111.664 285.238 113.629C286.256 115.594 287.688 117.109 289.535 118.175C291.381 119.24 293.571 119.773 296.104 119.773C297.785 119.773 299.324 119.536 300.721 119.062C302.118 118.589 303.313 117.879 304.308 116.932C305.302 115.985 306.059 114.825 306.58 113.452L320.572 114.375C319.862 117.737 318.406 120.672 316.204 123.182C314.026 125.668 311.209 127.609 307.752 129.006C304.319 130.379 300.354 131.065 295.856 131.065ZM330.763 130V75.4545H345.43V84.9716H345.998C346.992 81.5862 348.661 79.0294 351.005 77.3011C353.349 75.5492 356.048 74.6733 359.102 74.6733C359.859 74.6733 360.676 74.7206 361.552 74.8153C362.428 74.91 363.197 75.0402 363.86 75.206V88.6293C363.15 88.4162 362.167 88.2268 360.913 88.0611C359.658 87.8954 358.51 87.8125 357.468 87.8125C355.243 87.8125 353.254 88.2978 351.502 89.2685C349.774 90.2154 348.401 91.5412 347.383 93.2457C346.388 94.9503 345.891 96.9152 345.891 99.1406V130H330.763ZM393.787 131.065C388.2 131.065 383.394 129.882 379.37 127.514C375.369 125.123 372.291 121.809 370.137 117.571C368.006 113.333 366.941 108.456 366.941 102.94C366.941 97.3532 368.018 92.4527 370.172 88.2386C372.35 84.0009 375.44 80.6984 379.441 78.331C383.442 75.9399 388.2 74.7443 393.716 74.7443C398.475 74.7443 402.641 75.6084 406.216 77.3366C409.791 79.0649 412.62 81.4915 414.703 84.6165C416.787 87.7415 417.935 91.411 418.148 95.625H403.873C403.47 92.9025 402.405 90.7126 400.676 89.0554C398.972 87.3745 396.735 86.5341 393.965 86.5341C391.621 86.5341 389.573 87.1733 387.821 88.4517C386.093 89.7064 384.744 91.5412 383.773 93.956C382.802 96.3707 382.317 99.2945 382.317 102.727C382.317 106.207 382.791 109.167 383.738 111.605C384.708 114.044 386.069 115.902 387.821 117.18C389.573 118.459 391.621 119.098 393.965 119.098C395.693 119.098 397.244 118.743 398.617 118.033C400.014 117.322 401.162 116.293 402.061 114.943C402.985 113.57 403.588 111.925 403.873 110.007H418.148C417.911 114.174 416.775 117.843 414.739 121.016C412.727 124.164 409.945 126.626 406.394 128.402C402.843 130.178 398.641 131.065 393.787 131.065ZM428.118 130V57.2727H443.246V84.6165H443.707C444.37 83.1487 445.329 81.6572 446.584 80.142C447.862 78.6032 449.519 77.3248 451.555 76.3068C453.615 75.2652 456.172 74.7443 459.226 74.7443C463.203 74.7443 466.873 75.786 470.234 77.8693C473.596 79.929 476.283 83.0421 478.295 87.2088C480.308 91.3518 481.314 96.5483 481.314 102.798C481.314 108.883 480.331 114.02 478.366 118.21C476.425 122.377 473.774 125.537 470.412 127.692C467.074 129.822 463.333 130.888 459.19 130.888C456.255 130.888 453.757 130.402 451.697 129.432C449.661 128.461 447.992 127.242 446.69 125.774C445.388 124.283 444.394 122.779 443.707 121.264H443.033V130H428.118ZM442.926 102.727C442.926 105.971 443.376 108.8 444.276 111.214C445.175 113.629 446.477 115.511 448.182 116.861C449.886 118.187 451.958 118.849 454.396 118.849C456.858 118.849 458.942 118.175 460.646 116.825C462.351 115.452 463.641 113.558 464.517 111.143C465.417 108.705 465.866 105.9 465.866 102.727C465.866 99.5786 465.429 96.8087 464.553 94.4176C463.677 92.0265 462.386 90.1562 460.682 88.8068C458.977 87.4574 456.882 86.7827 454.396 86.7827C451.934 86.7827 449.851 87.4337 448.146 88.7358C446.465 90.0379 445.175 91.8845 444.276 94.2756C443.376 96.6667 442.926 99.4839 442.926 102.727ZM536.792 91.0085L522.942 91.8608C522.705 90.6771 522.196 89.6117 521.415 88.6648C520.634 87.6941 519.604 86.9247 518.326 86.3565C517.071 85.7647 515.568 85.4688 513.816 85.4688C511.472 85.4688 509.495 85.9659 507.885 86.9602C506.275 87.9309 505.471 89.233 505.471 90.8665C505.471 92.1686 505.991 93.2694 507.033 94.169C508.075 95.0687 509.862 95.7907 512.395 96.3352L522.267 98.3239C527.57 99.4129 531.524 101.165 534.128 103.58C536.732 105.994 538.034 109.167 538.034 113.097C538.034 116.671 536.981 119.808 534.874 122.507C532.791 125.206 529.926 127.313 526.28 128.828C522.658 130.32 518.48 131.065 513.745 131.065C506.524 131.065 500.771 129.562 496.486 126.555C492.225 123.525 489.727 119.406 488.993 114.197L503.873 113.416C504.322 115.618 505.411 117.299 507.14 118.459C508.868 119.595 511.081 120.163 513.78 120.163C516.432 120.163 518.562 119.654 520.172 118.636C521.806 117.595 522.634 116.257 522.658 114.624C522.634 113.25 522.054 112.126 520.918 111.25C519.782 110.35 518.03 109.664 515.662 109.19L506.216 107.308C500.89 106.243 496.924 104.396 494.32 101.768C491.739 99.1406 490.449 95.7907 490.449 91.7188C490.449 88.215 491.396 85.1965 493.29 82.6634C495.208 80.1302 497.895 78.1771 501.351 76.804C504.831 75.4309 508.903 74.7443 513.567 74.7443C520.456 74.7443 525.878 76.2003 529.831 79.1122C533.809 82.0241 536.129 85.9896 536.792 91.0085Z" fill="white"/>
<ellipse cx="518" cy="89.5" rx="19" ry="13.5" fill="white"/>
<ellipse cx="285.5" cy="102.5" rx="15.5" ry="23.5" fill="white"/>
<ellipse cx="150.5" cy="102.5" rx="15.5" ry="23.5" fill="white"/>
<ellipse cx="530" cy="48" rx="12" ry="10" fill="white"/>
</svg>
